<?xml version="1.0" encoding="utf-8"?>
<svg version="1.1" xmlns="http://www.w3.org/2000/svg" xmlns:xlink="http://www.w3.org/1999/xlink" viewBox="0 0 24 24" style="enable-background:new 0 0 24 24;" width="24" height="24" xml:space="preserve">
<path fill="#FFFFFF" d="M12,0C5.4,0,0,5.4,0,12c0,5.9,4.3,10.9,10,11.9l0.1-0.1c0,0,0,0-0.1,0v-8.5H7V12h3V9.3c0-3,1.9-4.7,4.7-4.7
	c0.9,0,1.8,0.1,2.7,0.3V8h-1.5C14.3,8,14,8.7,14,9.7V12h3.2l-0.5,3.3H14v8.5c0,0,0,0-0.1,0l0.1,0.1c5.7-1,10-5.9,10-11.9
	C24,5.4,18.6,0,12,0z"/>
</svg>