<?xml version="1.0" encoding="utf-8"?>
<svg version="1.1" xmlns="http://www.w3.org/2000/svg" xmlns:xlink="http://www.w3.org/1999/xlink" width="24px" height="24px" viewBox="0 0 24 24" style="enable-background:new 0 0 24 24;" xml:space="preserve">
<style type="text/css">
	.st0{fill:#FFFFFF;}
</style>
<g>
	<polygon class="st0" points="8.1,11.7 10.6,12.6 12,13.1 14.4,14.1 16.5,12 10.2,9.6 	"/>
	<polygon class="st0" points="11.1,8.7 17.4,11.1 18.8,9.7 14.5,5.4 	"/>
	<path class="st0" d="M9.7,13.4l-2.4-0.9l-0.5,0.6c-0.3,0.3-0.4,0.9-0.2,1.2c-0.1,0.1-0.2,0.1-0.3,0.2l0,0c-0.1,0-0.1,0-0.2,0.1
		c-0.1,0-0.2,0.1-0.3,0.1H5.5c0,0,0,0-0.1,0l0,0c-0.1,0-0.2,0-0.3,0s-0.2,0-0.3,0H4.6H4.5c-0.5-0.1-1-0.3-1.4-0.4
		c-0.5-0.1-1.1-0.2-1.6-0.1c-0.3,0-0.5,0.2-0.5,0.6c0,0.2,0.2,0.6,0.5,0.6c0.2,0,0.6,0,0.8,0c0.1,0,0.1,0,0.2,0h0.1l0,0l0,0
		c0.1,0,0.3,0,0.4,0.1c0.6,0.1,1,0.3,1.5,0.4c1,0.1,2.1,0,2.9-0.7l0.2,0.3l-6.3,6.3c-0.2,0.2-0.2,0.7,0,1C1.5,22.9,1.7,23,1.9,23
		s0.3-0.1,0.4-0.2l6.3-6.3l1,1c0.4,0.4,1.1,0.4,1.4,0l2.5-2.5l-2.4-0.9L9.7,13.4z"/>
	<path class="st0" d="M22.4,1h-0.1l-7.8,1.3c-0.5,0.1-0.8,0.8-0.3,1.2L15.6,5l3.6,3.6l1.4,1.4c0.1,0.1,0.3,0.2,0.4,0.2
		c0.3,0,0.7-0.2,0.7-0.6L23,1.8C23.2,1.3,22.9,1,22.4,1z"/>
</g>
</svg>