<?xml version="1.0" encoding="utf-8"?>
<svg version="1.1" xmlns="http://www.w3.org/2000/svg" xmlns:xlink="http://www.w3.org/1999/xlink" width="24" height="24" viewBox="0 0 24 24" style="enable-background:new 0 0 24 24;" xml:space="preserve">
<style type="text/css">
	.st0{fill:#FFFFFF;}
</style>
<path class="st0" d="M23.1,10.5l-2.5-2.4v-5c0-0.5-0.4-0.9-0.9-0.9h-2.1c-0.5,0-0.9,0.4-0.9,0.9v1.2L13,0.9c-0.6-0.6-1.5-0.6-2.1,0
	l-10,9.6c-0.9,0.9-0.3,2.4,1,2.4h1.5v9.3c0,0.7,0.6,1.3,1.4,1.3h4.9V18c0-0.7,0.6-1.3,1.4-1.3h1.7c0.7,0,1.4,0.6,1.4,1.3v5.5H19
	c0.7,0,1.4-0.6,1.4-1.3v-9.3h1.5C23.3,12.9,23.9,11.4,23.1,10.5z"/>
</svg>