<?xml version="1.0" encoding="utf-8"?>
<svg version="1.1" xmlns="http://www.w3.org/2000/svg" xmlns:xlink="http://www.w3.org/1999/xlink" width="24" height="24" viewBox="0 0 24 24" style="enable-background:new 0 0 24 24;" xml:space="preserve">
<style type="text/css">
	.st0{fill:#FFFFFF;}
</style>
<path class="st0" d="M23.2,5.3c-0.3-2.6-2.6-4.6-5.2-5c-0.5,0-2.2-0.3-6.1-0.3h0C7.8,0,7,0.3,6.5,0.3C4,0.7,1.6,2.5,1,5.1
	C0.7,6.4,0.7,7.8,0.8,9.2C0.8,11,0.8,12.9,1,14.8c0.1,1.3,0.3,2.5,0.6,3.7c0.5,2.2,2.7,4.1,4.9,4.8c2.3,0.8,4.8,0.9,7.2,0.4
	c0.3-0.1,0.5-0.1,0.8-0.2c0.6-0.2,1.3-0.4,1.8-0.7l0,0v-1.8c0,0,0,0,0,0h0c-1.5,0.4-3.1,0.6-4.7,0.6c-2.7,0-3.4-1.3-3.7-1.8
	c-0.2-0.5-0.3-1-0.3-1.4c0,0,0,0,0,0l0,0c1.5,0.4,3,0.6,4.6,0.6c0.4,0,0.7,0,1.1,0c1.6,0,3.2-0.1,4.7-0.4c0,0,0.1,0,0.1,0
	c2.4-0.5,4.7-1.9,4.9-5.6c0-0.1,0-1.5,0-1.7C23.2,10.3,23.4,7.2,23.2,5.3z M19.3,14.6h-2.5V8.4c0-1.3-0.6-2-1.7-2
	c-1.2,0-1.8,0.8-1.8,2.4v3.4h-2.5V8.8c0-1.6-0.6-2.4-1.8-2.4c-1.1,0-1.7,0.7-1.7,2v6.2H4.7V8.2c0-1.3,0.3-2.4,1-3.1
	c0.7-0.8,1.6-1.2,2.7-1.2c1.3,0,2.3,0.5,3,1.5L12,6.5l0.6-1.1c0.7-1,1.6-1.5,2.9-1.5c1.1,0,2,0.4,2.7,1.2c0.7,0.8,1,1.8,1,3.1
	L19.3,14.6L19.3,14.6z"/>
</svg>