<?xml version="1.0" encoding="utf-8"?>
<svg version="1.1" xmlns="http://www.w3.org/2000/svg" xmlns:xlink="http://www.w3.org/1999/xlink" width="24" height="24" viewBox="0 0 24 24" style="enable-background:new 0 0 24 24;" xml:space="preserve">
<style type="text/css">
	.st0{fill:#FFFFFF;}
</style>
<g>
	<path class="st0" d="M14.8,16c-0.9-0.1-1.8-0.2-2.8-0.2s-1.9,0-2.8,0.2C9.1,16,9,16.2,9,16.3c0.5,1.2,1.6,2,3,2s2.5-0.8,3-2
		C15,16.2,14.9,16,14.8,16z"/>
	<path class="st0" d="M12,0C5.4,0,0,5.4,0,12c0,3.3,1.3,6.3,3.5,8.5l-2.3,2.3C0.8,23.2,1.1,24,1.7,24H12c6.6,0,12-5.4,12-12
		S18.6,0,12,0z M20,14.4c-0.1,3.3-3.6,5.9-8,5.9s-7.9-2.6-8-5.9C3.1,14,2.4,13,2.4,11.9c0-1.5,1.2-2.8,2.8-2.8
		c0.6,0,1.2,0.2,1.7,0.6c1.3-0.8,2.9-1.3,4.6-1.3l0,0c0-1.7,1.3-3,2.9-3.2c0.2-0.9,1-1.6,1.9-1.6c1.1,0,2,0.9,2,2s-0.9,2-2,2
		c-0.9,0-1.7-0.6-1.9-1.5c-1.2,0.2-2.1,1.2-2.1,2.3l0,0c1.8,0.1,3.4,0.6,4.7,1.4c0.5-0.4,1-0.6,1.7-0.6c1.5,0,2.8,1.2,2.8,2.8
		C21.6,13,21,14,20,14.4z"/>
	<path class="st0" d="M14.4,13.7L14.4,13.7L14.4,13.7z"/>
	<path class="st0" d="M15.7,11.9L15.7,11.9L15.7,11.9c-0.6,0-1.1,0.5-1.3,1.1l0,0c0,0.1,0,0.2-0.1,0.3c0,0,0,0.1,0,0.1
		c0,0.1,0,0.1,0,0.2c0,0,0,0,0-0.1c0,0,0,0.1,0,0.2c0,1,0.7,1.3,1.5,1.4c0,0,0,0,0,0h0.1l0,0l0,0c0,0,0,0,0,0c0.7,0,1.2-0.4,1.3-1.2
		c0-0.1,0-0.2,0-0.4C17.2,12.5,16.5,11.9,15.7,11.9z"/>
	<path class="st0" d="M9.6,13.7c0,0,0-0.1,0-0.1V13.7c0-0.1,0-0.2,0-0.2c0-0.1,0-0.1,0-0.2c0-0.1,0-0.2,0-0.3c0,0,0,0,0-0.1
		c-0.1-0.6-0.5-1-1-1.1l0,0c-0.1,0-0.2,0-0.3,0c-0.8,0-1.5,0.7-1.5,1.7l0,0l0,0c0,1,0.6,1.5,1.3,1.5h0.1c0,0,0,0,0,0
		C8.9,15.1,9.6,14.7,9.6,13.7z"/>
</g>
</svg>