<?xml version="1.0" encoding="utf-8"?>
<svg version="1.1" xmlns="http://www.w3.org/2000/svg" xmlns:xlink="http://www.w3.org/1999/xlink" viewBox="0 0 256 256" style="enable-background:new 0 0 256 256;" xml:space="preserve">
<style type="text/css">
	.st0{fill:#FFFFFF;}
</style>
<path class="st0" d="M218.5,37.5C194.5,13.5,161.9,0,128,0S61.5,13.5,37.5,37.5C13.5,61.5,0,94.1,0,128c0,33.9,13.5,66.5,37.5,90.5
	c24,24,56.6,37.5,90.5,37.5s66.5-13.5,90.5-37.5c24-24,37.5-56.6,37.5-90.5C256,94.1,242.5,61.5,218.5,37.5z M187.3,87
	c-1.9,20.2-10.3,69.4-14.5,92c-1.8,9.6-5.3,12.8-8.7,13.1c-7.4,0.7-13.1-4.9-20.3-9.6c-11.3-7.4-17.6-12-28.6-19.2
	c-12.6-8.3-4.4-12.9,2.8-20.4c1.9-2,34.6-31.7,35.3-34.4c0.1-0.3,0.2-1.6-0.6-2.3c-0.7-0.7-1.8-0.4-2.6-0.3
	c-1.1,0.3-19.1,12.2-54,35.7c-5.1,3.5-9.7,5.2-13.9,5.1c-4.6-0.1-13.4-2.6-19.9-4.7c-8-2.6-14.4-4-13.8-8.4c0.3-2.3,3.5-4.7,9.5-7.1
	c37.3-16.3,62.2-27,74.6-32.2c35.6-14.8,42.9-17.4,47.8-17.4c1.1,0,3.4,0.2,5,1.5c1.3,1,1.6,2.5,1.8,3.5
	C187.3,83,187.5,85.3,187.3,87z"/>
</svg>
