<?xml version="1.0" standalone="no"?>
<!DOCTYPE svg PUBLIC "-//W3C//DTD SVG 20010904//EN"
 "http://www.w3.org/TR/2001/REC-SVG-20010904/DTD/svg10.dtd">
<svg version="1.0" xmlns="http://www.w3.org/2000/svg"
 width="1024.000000pt" height="1024.000000pt" viewBox="0 0 1024.000000 1024.000000"
 preserveAspectRatio="xMidYMid meet">
<metadata>
Created by potrace 1.14, written by Peter Selinger 2001-2017
</metadata>
<g transform="translate(0.000000,1024.000000) scale(0.100000,-0.100000)"
fill="#000000" stroke="none">
<path d="M5850 10229 c0 -5 -3 -8 -7 -7 -5 1 -26 -9 -48 -23 -22 -14 -57 -34
-78 -45 -72 -36 -77 -39 -77 -46 0 -5 -5 -8 -10 -8 -6 0 -38 -17 -73 -37 -34
-21 -76 -45 -92 -53 -17 -8 -32 -17 -35 -20 -3 -4 -32 -21 -65 -40 -86 -48
-113 -63 -173 -99 -29 -17 -56 -31 -61 -31 -4 0 -18 -9 -31 -20 -13 -11 -29
-20 -37 -20 -7 0 -13 -4 -13 -10 0 -5 -5 -10 -10 -10 -6 0 -40 -18 -76 -40
-36 -22 -67 -40 -68 -40 -2 0 -108 -61 -236 -135 -128 -74 -234 -135 -236
-135 -2 0 -27 -15 -57 -32 -85 -53 -90 -56 -142 -84 -27 -15 -52 -29 -55 -33
-3 -3 -23 -15 -45 -26 -22 -11 -42 -22 -45 -25 -3 -3 -16 -11 -30 -18 -31 -16
-69 -38 -254 -145 -81 -48 -152 -87 -157 -87 -5 0 -9 -4 -9 -9 0 -5 -10 -13
-22 -17 -13 -3 -34 -14 -48 -24 -14 -10 -49 -30 -78 -46 -29 -16 -61 -34 -70
-39 -41 -24 -156 -92 -190 -111 -20 -12 -55 -31 -77 -44 -22 -13 -56 -33 -76
-44 -136 -77 -234 -134 -444 -256 -16 -10 -75 -44 -130 -75 -112 -65 -150 -87
-198 -114 -17 -10 -70 -40 -117 -67 -47 -26 -87 -51 -90 -54 -3 -3 -19 -12
-35 -21 -17 -8 -91 -51 -165 -94 -74 -43 -155 -89 -180 -103 -25 -14 -74 -42
-109 -64 -34 -21 -65 -38 -67 -38 -2 0 -26 -14 -54 -31 l-50 -31 2 -2561 3
-2562 30 -14 c17 -8 31 -18 33 -23 2 -4 7 -8 12 -8 7 0 118 -61 180 -100 21
-12 280 -161 305 -174 11 -6 22 -13 25 -16 3 -3 25 -16 50 -29 25 -14 47 -27
50 -30 3 -3 25 -16 50 -29 25 -13 65 -36 90 -52 25 -16 51 -29 58 -29 6 -1 12
-5 12 -11 0 -5 4 -10 9 -10 6 0 60 -29 122 -65 61 -36 116 -65 120 -65 5 0 9
-4 9 -10 0 -5 4 -10 10 -10 5 0 31 -13 58 -29 26 -15 68 -39 93 -53 24 -14
154 -89 288 -167 134 -77 248 -141 252 -141 4 0 9 -4 11 -9 2 -5 10 -11 18
-13 8 -2 17 -5 20 -8 8 -8 111 -70 116 -70 2 0 21 -11 42 -23 20 -13 57 -35
82 -49 141 -79 404 -232 410 -238 3 -3 19 -12 35 -20 17 -8 46 -24 65 -36 19
-11 55 -32 80 -46 156 -87 456 -264 462 -273 4 -5 8 -6 8 -2 0 5 13 -1 29 -12
16 -12 31 -21 34 -21 3 0 35 -18 71 -40 36 -22 70 -40 76 -40 5 0 10 -4 10
-10 0 -5 6 -10 14 -10 7 0 19 -7 26 -15 7 -8 16 -12 21 -9 5 3 9 0 9 -5 0 -6
5 -11 10 -11 6 0 40 -18 76 -40 36 -22 68 -40 70 -40 2 0 28 -16 58 -35 30
-19 57 -35 60 -35 3 0 45 -24 93 -53 48 -29 103 -59 121 -66 17 -7 32 -17 32
-22 0 -4 8 -10 18 -13 10 -4 45 -22 78 -42 32 -20 82 -48 109 -63 28 -16 78
-45 112 -65 34 -20 66 -36 72 -36 6 0 11 -5 11 -11 0 -10 40 -3 50 10 5 6 13
11 99 59 25 13 68 38 95 55 28 16 76 43 106 60 30 16 61 35 68 40 8 6 31 20
53 31 21 12 127 73 236 136 302 177 327 191 346 197 9 3 17 9 17 14 0 5 5 9
10 9 6 0 40 18 76 40 36 22 70 40 74 40 5 0 10 3 12 8 2 4 21 16 43 27 22 11
59 32 81 48 23 15 47 27 53 27 6 0 11 4 11 8 0 4 12 13 28 19 31 14 130 69
146 82 6 5 34 21 61 37 28 15 64 35 80 45 17 10 46 27 65 37 19 10 103 58 185
107 83 48 166 96 185 107 19 11 64 37 100 58 63 37 91 52 195 112 28 16 57 33
65 38 44 28 242 140 247 140 4 0 14 6 22 14 9 7 43 28 76 46 33 17 66 37 73
42 15 13 18 1718 2 1718 -5 0 -33 15 -62 33 -87 53 -112 67 -130 73 -10 4 -18
10 -18 15 0 5 -5 9 -10 9 -6 0 -46 21 -90 47 -44 27 -93 55 -108 63 -24 13
-135 78 -180 105 -9 6 -48 28 -87 50 -38 22 -78 45 -87 50 -81 48 -384 223
-406 235 -15 8 -29 17 -32 20 -3 3 -19 12 -35 21 -17 9 -74 41 -127 72 l-97
56 -73 -43 c-184 -108 -244 -143 -258 -149 -8 -4 -33 -18 -55 -32 -22 -14 -58
-35 -80 -47 -22 -12 -49 -28 -60 -35 -11 -7 -31 -18 -45 -25 -14 -7 -27 -15
-30 -19 -3 -3 -30 -19 -60 -35 -30 -16 -56 -32 -58 -36 -2 -5 -7 -8 -12 -8 -7
0 -312 -174 -350 -200 -8 -6 -22 -13 -30 -17 -8 -3 -39 -21 -68 -40 -29 -18
-54 -33 -57 -33 -4 0 -81 -45 -135 -79 -14 -8 -27 -16 -30 -16 -3 -1 -21 -11
-39 -23 l-35 -21 -55 31 c-31 18 -89 51 -129 75 -41 24 -77 43 -82 43 -4 0
-13 6 -19 14 -7 8 -31 24 -54 35 -23 12 -58 31 -77 43 -19 11 -60 34 -90 51
-30 17 -67 38 -82 49 -14 10 -31 18 -37 18 -6 0 -11 4 -11 8 0 4 -12 13 -27
19 -16 7 -35 17 -43 22 -8 6 -40 25 -70 42 -30 18 -68 40 -85 49 -16 9 -70 40
-119 69 -49 28 -93 51 -97 51 -5 0 -9 3 -9 8 0 4 -21 18 -47 32 -27 13 -76 41
-111 62 -34 21 -67 38 -72 38 -6 0 -10 5 -10 10 0 6 -4 10 -9 10 -5 0 -40 18
-78 39 l-68 40 0 850 c1 468 3 852 5 854 16 14 392 227 400 227 5 0 10 4 10 9
0 5 8 11 18 15 9 3 31 14 48 25 30 18 237 139 354 206 30 17 98 57 152 88 53
31 101 57 107 57 6 0 11 4 11 8 0 9 37 29 54 30 5 0 12 4 15 9 5 8 147 92 261
156 l45 25 100 -59 c55 -32 112 -64 128 -70 15 -6 27 -15 27 -20 0 -5 6 -9 13
-9 7 0 28 -11 47 -23 19 -13 55 -35 80 -49 130 -72 165 -92 170 -97 6 -7 83
-50 117 -66 13 -5 23 -13 23 -17 0 -5 4 -8 9 -8 4 0 70 -36 145 -80 75 -44
141 -80 146 -80 6 0 10 -4 10 -9 0 -5 10 -13 23 -17 12 -3 29 -12 37 -19 8 -7
38 -25 65 -40 28 -14 64 -35 80 -45 17 -10 52 -31 79 -45 83 -45 91 -50 96
-56 3 -4 23 -15 45 -26 38 -20 61 -18 85 7 3 3 16 11 30 18 14 7 34 18 45 25
30 18 171 99 213 122 21 11 39 23 40 28 2 4 9 7 17 7 7 0 18 7 25 15 7 8 16
13 20 10 5 -3 10 -1 12 3 1 4 23 19 48 33 69 39 119 68 190 109 36 21 81 47
100 58 151 85 256 148 258 154 2 5 8 8 12 8 5 0 37 17 72 37 115 68 143 84
161 90 9 3 17 9 17 13 0 5 12 13 28 19 15 6 41 20 57 31 17 10 41 25 55 32
l25 13 3 856 2 856 -40 18 c-22 10 -40 22 -40 27 0 4 -5 8 -12 8 -6 0 -84 43
-174 95 -89 52 -167 95 -173 95 -6 0 -11 3 -11 8 0 4 -21 18 -47 32 -27 13
-75 41 -108 61 -33 20 -103 60 -155 90 -52 30 -104 60 -115 66 -11 7 -28 16
-37 19 -10 3 -18 10 -18 15 0 5 -5 9 -11 9 -6 0 -37 15 -68 34 -31 19 -73 43
-93 55 -21 12 -53 29 -70 40 -18 10 -98 56 -178 102 -80 46 -147 86 -150 89
-3 3 -25 16 -50 29 -105 56 -155 85 -158 93 -2 4 -8 8 -12 8 -5 0 -33 14 -62
31 -29 18 -67 40 -83 49 -17 9 -86 49 -153 89 -68 39 -127 71 -132 71 -6 0
-10 5 -10 10 0 6 -4 10 -10 10 -5 0 -76 39 -157 87 -81 47 -173 100 -203 116
-30 16 -62 35 -70 41 -15 11 -24 16 -99 58 -20 11 -83 48 -141 81 -106 62
-130 73 -130 56z"/>
</g>
</svg>
