<?xml version="1.0" encoding="utf-8"?>
<svg version="1.1" xmlns="http://www.w3.org/2000/svg" xmlns:xlink="http://www.w3.org/1999/xlink" width="24" height="24" viewBox="0 0 24 24" style="enable-background:new 0 0 24 24;" xml:space="preserve">
<style type="text/css">
	.st0{fill:#FFFFFF;}
</style>
<path class="st0" d="M21.7,2.8H2.3C1,2.8,0,3.8,0,5.1v13.8c0,1.3,1,2.3,2.3,2.3h19.4c1.3,0,2.3-1,2.3-2.3V5.1
	C24,3.8,23,2.8,21.7,2.8z M22.1,7.2v9.4L17.4,12L22.1,7.2z M10.1,13L1.9,4.8C2,4.7,2.1,4.6,2.3,4.6h19.4c0.2,0,0.3,0.1,0.4,0.2
	L13.8,13C12.8,14,11.1,14,10.1,13z M1.9,19.1l5.9-5.9l1.1,1.1c0.8,0.8,1.9,1.3,3.1,1.3s2.2-0.5,3.1-1.3l1.1-1.1l5.9,5.9
	c-0.1,0.1-0.2,0.2-0.4,0.2H2.3C2.1,19.3,2,19.2,1.9,19.1z M6.5,12l-4.7,4.7V7.3L6.5,12z"/>
</svg>